<svg width="11" height="11" viewBox="0 0 11 11" fill="none" xmlns="http://www.w3.org/2000/svg">
<path d="M11 2.44444V9.77778C11 10.1139 10.8803 10.4016 10.641 10.641C10.4016 10.8803 10.1139 11 9.77778 11H1.22222C0.886111 11 0.59838 10.8803 0.359028 10.641C0.119676 10.4016 0 10.1139 0 9.77778V1.22222C0 0.886111 0.119676 0.59838 0.359028 0.359028C0.59838 0.119676 0.886111 0 1.22222 0H8.55556L11 2.44444ZM9.77778 2.96389L8.03611 1.22222H1.22222V9.77778H9.77778V2.96389ZM5.5 9.16667C6.00926 9.16667 6.44213 8.98843 6.79861 8.63194C7.15509 8.27546 7.33333 7.84259 7.33333 7.33333C7.33333 6.82407 7.15509 6.3912 6.79861 6.03472C6.44213 5.67824 6.00926 5.5 5.5 5.5C4.99074 5.5 4.55787 5.67824 4.20139 6.03472C3.84491 6.3912 3.66667 6.82407 3.66667 7.33333C3.66667 7.84259 3.84491 8.27546 4.20139 8.63194C4.55787 8.98843 4.99074 9.16667 5.5 9.16667ZM1.83333 4.27778H7.33333V1.83333H1.83333V4.27778ZM1.22222 2.96389V9.77778V1.22222V2.96389Z" fill="white"/>
</svg>
